<svg width="14" height="14" viewBox="0 0 14 14" fill="none" xmlns="http://www.w3.org/2000/svg">
<g clip-path="url(#clip0_47_10)">
<path fill-rule="evenodd" clip-rule="evenodd" d="M10.0625 5.6875C10.0625 8.10374 8.10374 10.0625 5.6875 10.0625C3.27126 10.0625 1.3125 8.10374 1.3125 5.6875C1.3125 3.27126 3.27126 1.3125 5.6875 1.3125C8.10374 1.3125 10.0625 3.27126 10.0625 5.6875ZM9.21839 10.1465C8.24842 10.9156 7.0216 11.375 5.6875 11.375C2.54638 11.375 0 8.82866 0 5.6875C0 2.54638 2.54638 0 5.6875 0C8.82866 0 11.375 2.54638 11.375 5.6875C11.375 7.0216 10.9156 8.24842 10.1465 9.21839L13.589 12.661C13.8453 12.9173 13.8453 13.3327 13.589 13.589C13.3327 13.8453 12.9173 13.8453 12.661 13.589L9.21839 10.1465Z" fill="#FEFEFE"/>
</g>
<defs>
<clipPath id="clip0_47_10">
<rect width="14" height="14" fill="white"/>
</clipPath>
</defs>
</svg>
